:SAMPLES-PER-SECOND 30
:FULLY-SPECIFIED
:DEGREES
41
root  8.23699 40.1781 -0.275746 -172.138 -82.5978 166.832
RightUpLeg  -0.832513 -9.68002 -12.9565
RightLeg  14.3707 3.77832 0.905667
RightFoot  -5.58666 -0.377109 6.77478
RightToes  0.00048216 0.542163 -0.142577
Spine  6.83075 1.30936 -1.51842
Spine1  9.25164 1.92952 -2.79054
HEad  11.672 17.0782 -4.56055
LeftShoulder1  3.30392 -5.42817 -30.8918
LeftArm  -24.7145 28.1732 -28.5773
LeftForeArm  21.8327 -20.1373 -3.01693
LeftHand  -0.25398 0.0180481 5.50724
RightShoulder  2.72438 5.17156 25.2943
RightArm  -6.86292 -27.7625 32.3089
RightForeArm  4.77662 18.4826 4.91499
RightHand  -2.13519 6.28674 -21.385
LeftUpLeg  3.60385 7.39686 -2.1098
LeftLeg  12.832 16.695 0.36446
LeftFoot  -13.4943 0.100522 1.04836
LeftToes  1.06244e-005 4.65856e-005 -8.18505e-006
42
root  8.09494 39.9499 0.0545959 -168.954 -82.1197 162.8
RightUpLeg  -3.09683 -6.37099 -13.7276
RightLeg  20.1019 0.541009 -0.00393796
RightFoot  -5.98053 -0.451994 8.68692
RightToes  0.00048216 0.542163 -0.142577
Spine  8.10303 1.37353 -2.58443
Spine1  9.79882 1.84052 -2.89506
HEad  11.3725 17.9237 -5.05142
LeftShoulder1  3.5704 -5.3419 -34.2411
LeftArm  -24.7169 30.2804 -33.2586
LeftForeArm  23.1918 -21.107 -3.24161
LeftHand  -0.25398 0.0180481 5.50724
RightShoulder  2.88401 5.18595 27.1514
RightArm  -8.85642 -29.3929 37.3584
RightForeArm  5.60846 17.8382 4.9614
RightHand  -1.78652 4.97997 -20.1708
LeftUpLeg  3.82464 8.11155 -3.16034
LeftLeg  14.7495 16.3494 0.910667
LeftFoot  -14.9686 0.12315 1.05246
LeftToes  1.06244e-005 4.65856e-005 -8.18505e-006
43
root  7.9363 39.7562 0.393372 -168.511 -81.1479 161.378
RightUpLeg  -6.17234 -3.81382 -14.1199
RightLeg  27.1267 -3.41096 -2.15819
RightFoot  -4.23009 -0.666566 10.2339
RightToes  0.00048216 0.542163 -0.142577
Spine  9.46976 1.62567 -3.19599
Spine1  10.4531 2.07161 -3.31054
HEad  11.0601 18.5767 -5.20432
LeftShoulder1  3.76843 -5.2637 -36.7845
LeftArm  -23.2466 31.5986 -38.1182
LeftForeArm  23.9095 -20.2736 -3.13942
LeftHand  -0.25398 0.0180481 5.50724
RightShoulder  3.0041 5.04514 29.1542
RightArm  -10.0378 -30.5286 41.8077
RightForeArm  5.9725 17.1261 5.12442
RightHand  -1.48872 3.84167 -18.8937
LeftUpLeg  4.50313 8.86493 -3.9894
LeftLeg  16.1201 16.5533 1.30356
LeftFoot  -16.2276 0.146299 1.14382
LeftToes  1.06244e-005 4.65856e-005 -8.18505e-006
44
root  7.73416 39.6362 0.741264 -170.636 -80.004 162.566
RightUpLeg  -9.80696 -2.39653 -13.7391
RightLeg  34.6364 -8.02396 -6.1793
RightFoot  -0.297832 -0.813798 8.53943
RightToes  0.00048216 0.542163 -0.142577
Spine  10.4686 1.91337 -3.13013
Spine1  11.4565 2.50013 -3.78055
HEad  10.9604 19.1509 -5.24998
LeftShoulder1  4.0474 -5.4898 -38.7269
LeftArm  -20.3668 32.033 -42.354
LeftForeArm  24.7866 -17.3526 -3.11978
LeftHand  -0.25398 0.0180481 5.50724
RightShoulder  3.14366 4.99601 31.0216
RightArm  -9.50594 -31.3585 45.4215
RightForeArm  7.42625 16.6023 5.35131
RightHand  -1.1664 2.63482 -17.0124
LeftUpLeg  5.59501 9.44153 -4.55022
LeftLeg  16.6443 17.2859 1.60505
LeftFoot  -17.1145 0.172758 1.38903
LeftToes  1.06244e-005 4.65856e-005 -8.18505e-006
45
root  7.46144 39.5702 1.07091 -173.27 -79.0829 164.611
RightUpLeg  -13.5276 -1.92927 -12.5904
RightLeg  40.9518 -10.6381 -9.95658
RightFoot  3.64979 -0.557692 4.39528
RightToes  0.00048216 0.542163 -0.142577
Spine  10.6985 2.00195 -2.84845
Spine1  12.7704 2.75667 -3.99737
HEad  11.0948 20.0342 -5.49785
LeftShoulder1  4.45792 -6.06527 -40.2434
LeftArm  -17.6866 32.0771 -45.5409
LeftForeArm  27.6873 -13.412 -3.82343
LeftHand  -0.25398 0.0180481 5.50724
RightShoulder  3.3763 5.28764 32.4502
RightArm  -6.56055 -32.0289 48.1432
RightForeArm  10.798 16.5816 5.55135
RightHand  -0.76145 0.919049 -14.0411
LeftUpLeg  6.63052 9.77183 -4.92954
LeftLeg  16.6672 18.0947 1.84953
LeftFoot  -17.7511 0.199368 1.65832
LeftToes  1.06244e-005 4.65856e-005 -8.18505e-006
46
root  7.10416 39.5328 1.36043 -175.911 -78.5779 167.102
RightUpLeg  -16.6491 -2.13293 -10.7884
RightLeg  44.1838 -9.48822 -10.0045
RightFoot  5.3482 -0.29457 2.2234
RightToes  0.00048216 0.542163 -0.142577
Spine  10.2826 1.81874 -2.63439
Spine1  14.0561 2.66272 -3.97448
HEad  11.4065 21.3106 -5.89426
LeftShoulder1  4.90531 -6.75155 -41.428
LeftArm  -15.9895 32.2542 -47.5162
LeftForeArm  32.227 -10.1863 -4.77436
LeftHand  -0.25398 0.0180481 5.50724
RightShoulder  3.68121 5.8395 33.4483
RightArm  -0.942987 -32.4878 49.8041
RightForeArm  14.9756 17.1834 5.6285
RightHand  -0.403616 -1.00617 -10.5626
LeftUpLeg  7.393 9.81108 -5.09709
LeftLeg  16.5644 18.7161 2.01064
LeftFoot  -18.2896 0.223739 1.87696
LeftToes  1.06244e-005 4.65856e-005 -8.18505e-006
